<?xml version="1.0" encoding="UTF-8" standalone="no"?>
<!-- Uploaded to: SVG Repo, www.svgrepo.com, Generator: SVG Repo Mixer Tools -->

<svg
   width="750.92615"
   height="754.04333"
   viewBox="0 0 120.14818 120.64693"
   aria-hidden="true"
   role="img"
   class="iconify iconify--noto"
   preserveAspectRatio="xMidYMid"
   version="1.1"
   id="svg25"
   sodipodi:docname="RocketOS.svg"
   xmlns:inkscape="http://www.inkscape.org/namespaces/inkscape"
   xmlns:sodipodi="http://sodipodi.sourceforge.net/DTD/sodipodi-0.dtd"
   xmlns="http://www.w3.org/2000/svg"
   xmlns:svg="http://www.w3.org/2000/svg">
  <defs
     id="defs25" />
  <sodipodi:namedview
     id="namedview25"
     pagecolor="#ffffff"
     bordercolor="#000000"
     borderopacity="0.25"
     inkscape:showpageshadow="2"
     inkscape:pageopacity="0.0"
     inkscape:pagecheckerboard="0"
     inkscape:deskcolor="#d1d1d1" />
  <path
     fill="#ca2c31"
     d="m 0,67.266936 16.34,-16.1 27.82,-4.93 -2.75,14.56 -37.61,11.56 -2.43,-1.05 z"
     id="path1" />
  <path
     fill="#a02422"
     d="m 19.17,55.296936 -17.74,16.12 13.05,6.36 19.81,-10.11 v -4.77 l 4.05,-10.92 z"
     id="path2" />
  <path
     d="m 61.15,83.686936 -8.57,3.72 -8.09,17.150004 c 0,0 7.12,15.77 7.44,15.77 0.32,0 4.37,0.32 4.37,0.32 l 14.4,-16.1 3.64,-27.500004 z"
     fill="#a02422"
     id="path3" />
  <path
     d="m 52.73,96.376936 c 0,0 4.77,-0.97 8.17,-2.59 3.4,-1.62 7.6,-4.04 7.6,-4.04 l -1.54,13.430004 -15.05,17.13 c 0,0 -0.59,-0.73 -3.09,-6.17 -1.99,-4.34 -2.68,-5.89 -2.68,-5.89 z"
     fill="#ca2c31"
     id="path4" />
  <path
     d="m 27.81,76.196936 c 0,0 -5.74,-0.48 -12.03,7.47 -5.74,7.26 -8.43,19.080004 -9.47,22.120004 -1.04,3.04 -3.53,3.66 -2.7,5.05 0.83,1.39 4.42,1.31 8.85,0.76 4.43,-0.55 8.23,-1.94 8.23,-1.94 0,0 -0.19,0.48 -0.83,1.52 -0.23,0.37 -1.03,0.9 -0.97,1.45 0.14,1.31 11.36,1.34 20.32,-7.88 9.68,-9.950004 4.98,-18.110004 4.98,-18.110004 z"
     fill="#f7d74d"
     id="path5" />
  <path
     d="m 29.54,80.826936 c 0,0 -6.19,0.33 -11.31,8.28 -5.12,7.95 -7.5,17.160004 -7.01,17.780004 0.48,0.62 10.02,-2.83 12.31,-2.14 1.57,0.48 0.76,2.07 1.18,2.49 0.35,0.35 4.49,0.94 11.19,-6.32 6.71,-7.260004 5.12,-17.460004 5.12,-17.460004 z"
     fill="#fbf0b4"
     id="path6" />
  <path
     d="m 32.58,69.976936 c 0,0 -3.11,2.77 -4.22,4.36 -1.11,1.59 -1.11,1.73 -1.04,2.21 0.07,0.48 1.22,5.75 6.01,10.37 5.88,5.67 11.13,6.43 11.89,6.43 0.76,0 5.81,-5.67 5.81,-5.67 z"
     fill="#858585"
     id="path7" />
  <path
     d="m 46.33,86.776936 c 0,0 5.04,3.31 13.49,0.47 11.55,-3.88 20.02,-12.56 30.51,-23.52 10.12,-10.58 18.61,-23.71 18.61,-23.71 l -5.95,-19.93 z"
     fill="#437687"
     id="path8" />
  <path
     d="m 64.22,75.866936 1.39,-4.32 3.48,0.49 c 0,0 2.65,1.25 4.6,2.16 1.95,0.91 4.46,1.6 4.46,1.6 l -4.95,4.18 c 0,0 -2.7,-1.02 -4.67,-1.88 -2.22,-0.97 -4.31,-2.23 -4.31,-2.23 z"
     fill="#3f545f"
     id="path9" />
  <path
     d="m 80.55,11.676936 c 0,0 -9.62,5.58 -23.41,18.63 -12.43,11.76 -21.64,22.4 -23.87,31.45 -1.86,7.58 -0.87,12.18 3.36,17.15 4.47,5.26 9.71,7.87 9.71,7.87 0,0 3.94,0.06 20.38,-12.59 20.51,-15.79 36.94,-42.23 36.94,-42.23 z"
     fill="#8dafbf"
     id="path10" />
  <path
     d="m 100.41,37.376936 c 0,0 -8.37,-3.57 -14.34,-11.9 -5.93,-8.27 -5.46,-13.86 -5.46,-13.86 0,0 4.96,-3.89 16.11,-8.34 7.5,-2.99000005 17.71,-4.52 21.07,-2.03 3.36,2.49 -2.3,14.98 -2.3,14.98 l -10.31,19.96 z"
     fill="#d83f22"
     id="path11" />
  <path
     d="m 64.4,75.936936 c 0,0 -7.23,-3.69 -11.83,-8.94 -8.7,-9.91 -10.5,-20.79 -10.5,-20.79 l 4.37,-5.13 c 0,0 1.09,11.56 10.42,21.55 6.08,6.51 12.43,9.49 12.43,9.49 0,0 -1.27,1.07 -2.63,2.11 -0.87,0.67 -2.26,1.71 -2.26,1.71 z"
     fill="#6896a5"
     id="path12" />
  <path
     d="m 108.94,40.016936 c 0,0 4.34,-5.23 8.45,-17.02 5.74,-16.44 0.74,-21.42 0.74,-21.42 0,0 -1.69,7.82 -7.56,18.69 -4.71,8.71 -10.41,17 -10.41,17 0,0 3.14,1.41 4.84,1.9 2.14,0.62 3.94,0.85 3.94,0.85 z"
     fill="#a02422"
     id="path13" />
  <path
     d="m 36.04,65.196936 c 1.3,1.24 3.27,-0.06 4.56,-3.1 1.3,-3.04 1.28,-4.74 0.28,-5.46 -1.24,-0.9 -3.32,1.07 -4.23,2.82 -1,1.94 -1.59,4.8 -0.61,5.74 z"
     fill="#b3e1ee"
     id="path14" />
  <path
     d="m 81.18,15.666936 c 0,0 -7.61,5.47 -15.73,12.91 -7.45,6.83 -12.39,12.17 -13.07,13.41 -0.72,1.33 -0.73,3.21 -0.17,4.17 0.56,0.96 1.8,1.46 2.93,0.62 1.13,-0.85 9.18,-9.75 16.45,-16.11 6.65,-5.82 11.78,-9.51 11.78,-9.51 0,0 2.08,-3.68 1.74,-4.52 -0.34,-0.85 -3.93,-0.97 -3.93,-0.97 z"
     fill="#b3e1ee"
     id="path15" />
  <path
     d="m 81.18,15.666936 c 0,0 5.62,-4.31 11.74,-7.34 5.69,-2.82 11.35,-5.17 12.37,-3.13 0.97,1.94 -5.37,4.58 -10.95,8.14 -5.58,3.56 -10.95,7.81 -10.95,7.81 0,0 -0.82,-1.5 -1.35,-2.89 a 23.7,23.7 0 0 1 -0.86,-2.59 z"
     fill="#ed6a65"
     id="path16" />
  <path
     d="m 85.82,34.786936 c -5.57,-5.13 -13.32,-3.75 -17.14,0.81 -3.92,4.7 -3.63,11.88 1,16.2 4.21,3.92 12.04,4.81 16.76,-0.69 4.2,-4.88 3.94,-12.13 -0.62,-16.32 z"
     fill="#e1e1e1"
     id="path17" />
  <path
     d="m 71.56,37.406936 c -3.31,3.25 -3.13,9.69 0.81,12.63 3.44,2.57 8.32,2.44 11.38,-0.69 3.06,-3.13 3.06,-8.82 0.19,-11.76 -3.3,-3.37 -8.59,-3.9 -12.38,-0.18 z"
     fill="#3f545f"
     id="path18" />
  <path
     d="m 46.23,72.426936 c 0,0 6.19,-6.28 6.87,-5.6 0.68,0.68 0.59,4.49 -2.37,8.73 -2.97,4.24 -9.5,11.79 -14.67,16.88 -5.1,5.01 -12.29,10.740004 -12.97,10.640004 -0.53,-0.08 -2.68,-1.15 -3.54,-2.19 -0.84,-1.030004 1.67,-5.900004 2.68,-7.510004 1.02,-1.61 24,-20.95 24,-20.95 z"
     fill="#a02524"
     id="path19" />
  <path
     d="m 17.46,97.386936 c -0.08,1.44 2.12,3.540004 2.12,3.540004 L 53.1,66.836936 c 0,0 -1.57,-1.77 -6.19,1.1 -4.66,2.9 -8.74,6.38 -14.76,12.21 -8.39,8.14 -14.61,15.8 -14.69,17.24 z"
     fill="#ca2c31"
     id="path20" />
  <path
     d="m 15.29,32.486936 c -1.11,1.11 -1.16,2.89 0.08,3.91 1.1,0.91 2.89,0.32 3.56,-0.5 0.67,-0.82 0.59,-2.6 -0.3,-3.48 -0.89,-0.89 -2.66,-0.6 -3.34,0.07 z"
     fill="#ffffff"
     id="path21" />
  <path
     d="m 37.25,31.186936 c -0.84,0.93 -0.57,2.31 0.21,2.82 0.78,0.51 1.95,0.46 2.52,-0.24 0.51,-0.63 0.57,-1.89 -0.21,-2.67 -0.68,-0.67 -1.98,-0.51 -2.52,0.09 z"
     opacity="0.5"
     fill="#ffffff"
     id="path22" />
  <path
     d="m 51.78,7.426936 c 0,0 1.22,-3.48 1.94,-3.52 0.73,-0.04 1.78,3.48 1.78,3.48 0,0 3.61,0.04 3.85,0.57 0.31,0.68 -2.31,2.96 -2.31,2.96 0,0 0.85,3.4 0.45,3.81 -0.45,0.45 -3.56,-1.34 -3.56,-1.34 0,0 -3.2,2.23 -3.89,1.62 -0.6,-0.53 0.65,-4.13 0.65,-4.13 0,0 -3,-2.19 -2.84,-2.8 0.23,-0.86 3.93,-0.65 3.93,-0.65 z"
     fill="#ffffff"
     id="path23" />
  <path
     d="m 93.24,90.866936 c 1.21,0.67 2.73,0.29 3.29,-1 0.51,-1.15 -0.43,-2.52 -1.28,-2.89 -0.85,-0.37 -2.34,0.12 -2.88,1.09 -0.53,0.96 0.14,2.4 0.87,2.8 z"
     fill="#ffffff"
     id="path24" />
  <path
     d="m 110.42,61.376936 c -0.69,-1.07 -2.18,-1.42 -3.15,-0.56 -0.94,0.84 -0.71,2.16 -0.18,2.83 0.53,0.67 1.95,0.92 2.81,0.37 0.86,-0.55 0.94,-2 0.52,-2.64 z"
     fill="#ffffff"
     id="path25" />
</svg>
